<svg id="_x31__x2C_5" enable-background="new 0 0 24 24" height="512" viewBox="0 0 24 24" width="512" xmlns="http://www.w3.org/2000/svg"><g><path d="m10.746 16.999c-.191 0-.383-.037-.563-.111-.375-.155-.673-.463-.815-.844l-.254-.674-.659-.237c-.381-.144-.688-.44-.843-.815s-.148-.803.02-1.172l.299-.657-.298-.633c-.168-.371-.175-.799-.02-1.174.156-.375.463-.671.843-.814l.674-.254.238-.659c.142-.379.438-.687.813-.842.376-.155.804-.148 1.174.019l.645.293.645-.293c.37-.168.798-.175 1.174-.02.375.156.671.463.814.843l.253.674.659.238c.379.142.687.438.842.813.156.375.149.803-.019 1.174l-.299.657.298.633c.168.37.175.798.02 1.173s-.462.672-.842.815l-.676.253-.237.659c-.142.38-.439.688-.815.843s-.802.148-1.174-.021l-.655-.298-.634.298c-.191.089-.4.133-.608.133zm-.012-7.501-.216.66c-.149.398-.463.712-.862.861l-.674.253.313.619c.175.388.175.831 0 1.218l-.299.657.659.216c.398.149.712.463.862.861l.253.675.619-.313c.388-.176.831-.175 1.217-.001l.657.299.216-.659c.149-.398.463-.712.862-.861l.675-.253-.314-.619c-.175-.388-.175-.831 0-1.217l.299-.658-.66-.216c-.398-.149-.712-.463-.861-.862l-.253-.674-.619.313h-.001c-.386.175-.83.175-1.216 0zm1.565-.385h.01z"/></g><g><path d="m14.25 24c-.18 0-.358-.065-.498-.189l-1.752-1.557-1.752 1.557c-.22.195-.536.244-.805.124-.27-.122-.443-.39-.443-.685v-7.99c0-.414.336-.75.75-.75s.75.336.75.75v6.32l1.002-.891c.284-.252.712-.252.996 0l1.002.891v-6.32c0-.414.336-.75.75-.75s.75.336.75.75v7.99c0 .295-.173.563-.443.685-.099.044-.203.065-.307.065z"/></g><g><path d="m21.25 22h-3.5c-.415 0-.75-.336-.75-.75s.336-.75.75-.75h3.5c.689 0 1.25-.561 1.25-1.25v-16.5c0-.689-.561-1.25-1.25-1.25h-18.5c-.689 0-1.25.561-1.25 1.25v16.5c0 .689.561 1.25 1.25 1.25h3.5c.415 0 .75.336.75.75s-.335.75-.75.75h-3.5c-1.517 0-2.75-1.233-2.75-2.75v-16.5c0-1.517 1.233-2.75 2.75-2.75h18.5c1.517 0 2.75 1.233 2.75 2.75v16.5c0 1.517-1.233 2.75-2.75 2.75z"/></g><g><path d="m23.25 5h-22.5c-.414 0-.75-.336-.75-.75s.336-.75.75-.75h22.5c.414 0 .75.336.75.75s-.336.75-.75.75z"/></g></svg>