<svg id="_x31__x2C_5" enable-background="new 0 0 24 24" height="512" viewBox="0 0 24 24" width="512" xmlns="http://www.w3.org/2000/svg"><g><path d="m15.522 19h-7.631c-1.87 0-3.391-1.48-3.391-3.3 0-1.632 1.224-2.991 2.825-3.254.575-2.001 2.485-3.446 4.675-3.446 1.727 0 3.326.9 4.187 2.325 1.89.304 3.313 1.902 3.313 3.809 0 2.132-1.785 3.866-3.978 3.866zm-3.522-8.5c-1.663 0-3.089 1.186-3.319 2.759-.054.368-.37.641-.743.641-1.09 0-1.938.808-1.938 1.8s.848 1.8 1.891 1.8h7.631c1.366 0 2.478-1.062 2.478-2.366 0-1.252-1.021-2.287-2.325-2.357-.273-.015-.517-.177-.635-.423-.544-1.126-1.737-1.854-3.04-1.854z"/></g><g><path d="m21.25 23h-18.5c-1.517 0-2.75-1.233-2.75-2.75v-16.5c0-1.517 1.233-2.75 2.75-2.75h18.5c1.517 0 2.75 1.233 2.75 2.75v16.5c0 1.517-1.233 2.75-2.75 2.75zm-18.5-20.5c-.689 0-1.25.561-1.25 1.25v16.5c0 .689.561 1.25 1.25 1.25h18.5c.689 0 1.25-.561 1.25-1.25v-16.5c0-.689-.561-1.25-1.25-1.25z"/></g><g><path d="m23.25 6h-22.5c-.414 0-.75-.336-.75-.75s.336-.75.75-.75h22.5c.414 0 .75.336.75.75s-.336.75-.75.75z"/></g></svg>