<svg id="_x31__x2C_5" enable-background="new 0 0 24 24" height="512" viewBox="0 0 24 24" width="512" xmlns="http://www.w3.org/2000/svg"><path d="m5.75 15.5c-.414 0-.75-.336-.75-.75v-12c0-.414.336-.75.75-.75s.75.336.75.75v12c0 .414-.336.75-.75.75z"/><path d="m23.25 7.5h-17.5c-.414 0-.75-.336-.75-.75s.336-.75.75-.75h17.5c.414 0 .75.336.75.75s-.336.75-.75.75z"/><path d="m23.25 11.5h-17.5c-.414 0-.75-.336-.75-.75s.336-.75.75-.75h17.5c.414 0 .75.336.75.75s-.336.75-.75.75z"/><path d="m22.25 19h-20.5c-.965 0-1.75-.785-1.75-1.75v-13.5c0-.965.785-1.75 1.75-1.75h20.5c.965 0 1.75.785 1.75 1.75v13.5c0 .965-.785 1.75-1.75 1.75zm-20.5-15.5c-.138 0-.25.112-.25.25v13.5c0 .138.112.25.25.25h20.5c.138 0 .25-.112.25-.25v-13.5c0-.138-.112-.25-.25-.25z"/><path d="m23.25 15.5h-22.5c-.414 0-.75-.336-.75-.75s.336-.75.75-.75h22.5c.414 0 .75.336.75.75s-.336.75-.75.75z"/><path d="m15.25 22h-6.5c-.303 0-.577-.183-.693-.463s-.052-.602.163-.817c1.041-1.041 1.265-2.553 1.267-2.567.055-.411.43-.704.841-.646.411.054.7.431.646.841-.008.059-.147 1.066-.744 2.152h3.523c-.591-1.08-.738-2.088-.746-2.147-.057-.41.229-.788.64-.846.412-.056.789.229.846.639.007.045.232 1.469 1.184 2.487.195.136.323.361.323.617 0 .414-.336.75-.75.75z"/></svg>