<svg id="_x31__x2C_5" enable-background="new 0 0 24 24" height="512" viewBox="0 0 24 24" width="512" xmlns="http://www.w3.org/2000/svg"><path d="m22.25 19h-20.5c-.965 0-1.75-.785-1.75-1.75v-13.5c0-.965.785-1.75 1.75-1.75h20.5c.965 0 1.75.785 1.75 1.75v13.5c0 .965-.785 1.75-1.75 1.75zm-20.5-15.5c-.138 0-.25.112-.25.25v13.5c0 .138.112.25.25.25h20.5c.138 0 .25-.112.25-.25v-13.5c0-.138-.112-.25-.25-.25z"/><path d="m23.25 15.5h-22.5c-.414 0-.75-.336-.75-.75s.336-.75.75-.75h22.5c.414 0 .75.336.75.75s-.336.75-.75.75z"/><path d="m15.25 22h-6.5c-.304 0-.577-.183-.693-.463-.115-.28-.052-.603.163-.817 1.046-1.046 1.266-2.555 1.268-2.57.057-.409.428-.692.844-.642.409.056.697.431.643.84-.007.059-.147 1.066-.743 2.152h3.522c-.591-1.08-.737-2.088-.746-2.146-.057-.41.229-.789.64-.847.415-.06.788.229.846.639.007.044.232 1.469 1.186 2.488.193.136.32.361.32.616 0 .414-.336.75-.75.75z"/><path d="m19.75 9.75h-2.5c-.414 0-.75-.336-.75-.75s.336-.75.75-.75h2.5c.414 0 .75.336.75.75s-.336.75-.75.75z"/><path d="m19.75 12h-2c-.689 0-1.25-.561-1.25-1.25v-3.5c0-.689.561-1.25 1.25-1.25h2c.414 0 .75.336.75.75s-.336.75-.75.75h-1.75v3h1.75c.414 0 .75.336.75.75s-.336.75-.75.75z"/><path d="m9.75 12c-.414 0-.75-.336-.75-.75v-4.5c0-.414.336-.75.75-.75s.75.336.75.75v4.5c0 .414-.336.75-.75.75z"/><path d="m7.25 12h-2.5c-.414 0-.75-.336-.75-.75v-4.5c0-.414.336-.75.75-.75s.75.336.75.75v3.75h1.75c.414 0 .75.336.75.75s-.336.75-.75.75z"/><path d="m13.5 12c-.337 0-.633-.225-.723-.549l-1.25-4.5c-.111-.399.123-.813.521-.924.4-.111.813.124.924.521l.528 1.9.527-1.899c.11-.397.521-.633.924-.521.398.111.633.524.521.924l-1.25 4.5c-.089.323-.385.548-.722.548z"/></svg>